<svg width="104" height="134" viewBox="0 0 104 134" fill="none" xmlns="http://www.w3.org/2000/svg">
    <path
        d="M103.61 50.6374V27.3415L51.8049 0L0 27.3415L51.8049 59L99.2927 33.0976V50.6374C99.2927 53.2439 103.61 53.2439 103.61 50.6374Z"
        fill="#1861F8" />
    <path
        d="M8.63415 66.1951V106.488C29.3699 110.411 37.819 117.455 50.3659 133.829V93.5366C43.1707 80.5854 25.9024 66.1951 8.63415 66.1951Z"
        fill="#1861F8" />
    <path
        d="M53.2439 133.829V93.5366C64.7561 77.7073 82.0244 66.1951 94.9756 66.1951V106.488C76.7858 111.347 67.5896 117.695 53.2439 133.829Z"
        fill="#1861F8" />
    <path
        d="M40.2927 125.195C20.1463 116.561 12.6226 114.533 1.43902 115.122V69.0732H5.7561V110.805C20.2761 112.19 27.7746 115.657 40.2927 125.195Z"
        fill="#1861F8" />
    <path
        d="M66.1951 125.195C78.8812 116.461 85.9638 111.852 97.8537 110.805V69.0732H102.171V115.122C91.4097 114.808 82.0731 118.899 66.1951 125.195Z"
        fill="#1861F8" />
    <path
        d="M17.2683 44.6097V61.878C34.7549 69.2451 42.4175 74.8423 51.8049 87.7805C64.0753 74.6185 71.8533 68.7776 87.7805 61.878V44.6097L51.8049 64.7561L17.2683 44.6097Z"
        fill="#F5F5F5" />
</svg>